<svg xmlns="http://www.w3.org/2000/svg" xmlns:xlink="http://www.w3.org/1999/xlink" width="700" zoomAndPan="magnify" viewBox="0 0 525 637.499986" height="850" preserveAspectRatio="xMidYMid meet" version="1.0"><path fill="#ffffff" d="M 55.523438 302.972656 L 106.617188 302.972656 L 106.617188 256.519531 L 55.523438 256.519531 Z M 55.523438 302.972656 " fill-opacity="1" fill-rule="nonzero"/><path fill="#ffffff" d="M 505.429688 298.664062 C 506.582031 296.703125 510.519531 288.332031 511.984375 285.28125 L 501.714844 278.3125 L 501.714844 278.332031 C 490.582031 270.746094 464.910156 268.003906 445.199219 271.753906 C 442.644531 252.972656 432.292969 236.621094 413.425781 221.917969 L 402.601562 214.640625 L 395.40625 225.589844 C 381.179688 247.34375 377.320312 283.15625 392.558594 306.785156 C 385.835938 310.457031 372.621094 315.46875 355.136719 315.15625 L 19.046875 315.15625 C 12.324219 354.890625 23.542969 406.519531 53.066406 441.964844 C 81.726562 476.316406 124.71875 493.761719 180.925781 493.761719 C 302.621094 493.761719 392.683594 437.058594 434.828125 334.023438 C 451.363281 334.332031 487.097656 334.105469 505.429688 298.664062 Z M 505.429688 298.664062 " fill-opacity="1" fill-rule="nonzero"/><path fill="#ffffff" d="M 115.832031 256.519531 L 166.925781 256.519531 L 166.925781 302.972656 L 115.832031 302.972656 Z M 115.832031 256.519531 " fill-opacity="1" fill-rule="nonzero"/><path fill="#ffffff" d="M 176.226562 256.519531 L 227.320312 256.519531 L 227.320312 302.972656 L 176.226562 302.972656 Z M 176.226562 256.519531 " fill-opacity="1" fill-rule="nonzero"/><path fill="#ffffff" d="M 297.050781 256.519531 L 348.144531 256.519531 L 348.144531 302.972656 L 297.050781 302.972656 Z M 297.050781 256.519531 " fill-opacity="1" fill-rule="nonzero"/><path fill="#ffffff" d="M 115.832031 200.105469 L 166.925781 200.105469 L 166.925781 247.117188 L 115.832031 247.117188 Z M 115.832031 200.105469 " fill-opacity="1" fill-rule="nonzero"/><path fill="#ffffff" d="M 236.597656 256.601562 L 287.691406 256.601562 L 287.691406 303.054688 L 236.597656 303.054688 Z M 236.597656 256.601562 " fill-opacity="1" fill-rule="nonzero"/><path fill="#ffffff" d="M 236.597656 200.105469 L 287.691406 200.105469 L 287.691406 247.117188 L 236.597656 247.117188 Z M 236.597656 200.105469 " fill-opacity="1" fill-rule="nonzero"/><path fill="#ffffff" d="M 236.597656 143.238281 L 287.691406 143.238281 L 287.691406 190.722656 L 236.597656 190.722656 Z M 236.597656 143.238281 " fill-opacity="1" fill-rule="nonzero"/><path fill="#ffffff" d="M 176.226562 200.105469 L 227.320312 200.105469 L 227.320312 247.117188 L 176.226562 247.117188 Z M 176.226562 200.105469 " fill-opacity="1" fill-rule="nonzero"/></svg>