<svg xmlns="http://www.w3.org/2000/svg" xmlns:xlink="http://www.w3.org/1999/xlink" width="700" zoomAndPan="magnify" viewBox="0 0 525 637.499986" height="850" preserveAspectRatio="xMidYMid meet" version="1.0"><defs><clipPath id="65171ffdd2"><path d="M 8 72 L 524.792969 72 L 524.792969 585 L 8 585 Z M 8 72 " clip-rule="nonzero"/></clipPath></defs><g clip-path="url(#65171ffdd2)"><path fill="#ffffff" d="M 491.863281 468.433594 C 463.320312 467.640625 441.175781 470.566406 422.613281 478.371094 C 417.269531 480.519531 408.695312 480.519531 407.992188 487.246094 C 410.847656 490.066406 411.191406 494.6875 413.695312 498.597656 C 417.976562 505.699219 425.480469 515.261719 432.253906 520.222656 L 455.09375 536.546875 C 469.015625 545.050781 484.71875 550.019531 498.277344 558.535156 C 506.132812 563.503906 513.984375 569.890625 521.839844 575.214844 C 525.839844 578.054688 528.261719 582.671875 533.261719 584.4375 L 533.261719 583.363281 C 530.765625 580.183594 530.046875 575.574219 527.558594 572.011719 L 516.839844 561.730469 C 506.496094 547.898438 493.640625 535.828125 479.71875 525.90625 C 468.292969 518.101562 443.320312 507.460938 438.679688 494.34375 L 437.976562 493.550781 C 445.816406 492.753906 455.09375 489.996094 462.597656 487.863281 C 474.742188 484.683594 485.796875 485.382812 498.277344 482.195312 L 515.421875 477.226562 L 515.421875 474.046875 C 509 467.664062 504.359375 459.148438 497.582031 453.121094 C 479.382812 437.515625 459.382812 422.257812 438.679688 409.488281 C 427.613281 402.398438 413.335938 397.777344 401.558594 391.761719 C 397.261719 389.628906 390.136719 388.566406 387.640625 385.019531 C 381.199219 377.226562 377.640625 366.929688 373 357.703125 L 343.734375 295.980469 C 337.3125 282.148438 333.375 268.316406 325.535156 255.546875 C 288.765625 195.242188 248.78125 158.710938 187.390625 122.878906 C 174.191406 115.429688 158.488281 112.226562 141.789062 108.328125 L 115.023438 106.898438 C 109.300781 104.417969 103.597656 97.675781 98.597656 94.480469 C 78.253906 81.710938 25.78125 54.042969 10.78125 90.503906 C 1.140625 113.558594 25.0625 136.257812 33.183594 147.96875 C 39.261719 156.125 47.101562 165.347656 51.398438 174.570312 C 53.796875 180.597656 54.597656 186.992188 57.101562 193.375 C 62.804688 208.980469 68.167969 226.367188 75.664062 240.917969 C 79.664062 248.367188 83.863281 256.183594 88.863281 262.917969 C 91.71875 266.890625 96.71875 268.59375 97.78125 274.976562 C 92.78125 282.078125 92.4375 292.707031 89.582031 301.585938 C 76.726562 341.671875 81.726562 391.332031 99.925781 420.84375 C 105.648438 429.707031 119.125 449.226562 137.414062 441.769531 C 153.480469 435.382812 149.894531 415.167969 154.535156 397.429688 C 155.613281 393.175781 154.894531 390.335938 157.03125 387.492188 L 157.03125 388.285156 L 171.671875 417.726562 C 182.734375 435.105469 202.015625 453.203125 218.070312 465.269531 C 226.632812 471.652344 233.414062 482.65625 244.117188 486.554688 L 244.117188 485.480469 L 243.414062 485.480469 C 241.269531 482.300781 238.054688 480.867188 235.199219 478.386719 C 228.773438 472.003906 221.640625 464.195312 216.640625 457.105469 C 201.65625 437.246094 188.453125 415.246094 176.671875 392.546875 C 170.949219 381.550781 165.949219 369.492188 161.328125 358.496094 C 159.167969 354.234375 159.167969 347.84375 155.605469 345.726562 C 150.246094 353.519531 142.40625 360.277344 138.460938 369.847656 C 131.679688 385.097656 130.976562 403.902344 128.480469 423.410156 C 127.039062 423.769531 127.679688 423.410156 127.039062 424.207031 C 115.628906 421.375 111.695312 409.65625 107.414062 399.734375 C 96.710938 374.546875 94.917969 334.113281 104.199219 305.023438 C 106.695312 297.574219 117.414062 274.160156 113.136719 267.066406 C 110.976562 260.324219 103.855469 256.429688 99.917969 251.101562 C 95.277344 244.359375 90.292969 235.851562 87.078125 228.402344 C 78.519531 208.527344 74.238281 186.546875 64.949219 166.675781 C 60.65625 157.453125 53.167969 147.875 47.09375 139.367188 C 40.3125 129.785156 32.832031 123.046875 27.472656 111.699219 C 25.6875 107.726562 23.191406 101.414062 26.046875 97.152344 C 26.75 94.3125 28.191406 93.175781 31.03125 92.539062 C 35.671875 88.5625 48.886719 93.605469 53.527344 95.71875 C 66.726562 101.046875 77.789062 106.007812 88.855469 113.449219 C 93.855469 116.996094 99.214844 123.738281 105.640625 125.519531 L 113.144531 125.519531 C 124.566406 128 137.40625 126.3125 148.101562 129.492188 C 167.023438 135.535156 184.152344 144.390625 199.511719 153.980469 C 246.261719 183.421875 284.824219 225.277344 310.871094 275.304688 C 315.152344 283.460938 316.933594 290.910156 320.871094 299.425781 C 328.375 316.8125 337.65625 334.542969 345.136719 351.578125 C 352.640625 368.25 359.773438 385.289062 370.480469 399.121094 C 375.839844 406.570312 397.246094 410.46875 406.878906 414.371094 C 414.023438 417.550781 425.078125 420.414062 431.519531 424.308594 C 443.648438 431.757812 455.78125 440.273438 467.199219 448.429688 C 472.902344 452.675781 490.757812 461.550781 491.824219 468.625 Z M 127.863281 160.179688 C 122.910156 160.136719 118.035156 160.730469 113.238281 161.953125 L 113.238281 162.75 L 113.941406 162.75 C 116.796875 168.425781 121.796875 172.328125 125.367188 177.296875 L 133.582031 194.328125 L 134.285156 193.535156 C 139.285156 189.988281 141.789062 184.3125 141.789062 175.804688 C 139.644531 173.324219 139.292969 170.835938 137.511719 168.355469 C 135.367188 164.808594 130.726562 163.027344 127.863281 160.199219 Z M 127.863281 160.179688 " fill-opacity="1" fill-rule="evenodd"/></g></svg>