<svg xmlns="http://www.w3.org/2000/svg" xmlns:xlink="http://www.w3.org/1999/xlink" width="700" zoomAndPan="magnify" viewBox="0 0 525 637.499986" height="850" preserveAspectRatio="xMidYMid meet" version="1.0"><defs><clipPath id="77716620e4"><path d="M 67 37.128906 L 468 37.128906 L 468 610 L 67 610 Z M 67 37.128906 " clip-rule="nonzero"/></clipPath></defs><g clip-path="url(#77716620e4)"><path fill="#ffffff" d="M 105.558594 409.777344 C 56.980469 366.191406 52.808594 285.800781 105.570312 237.558594 C 89.292969 222.296875 77.96875 204.109375 71.582031 182.542969 C 55.546875 128.386719 85.988281 65.605469 139.152344 46.238281 C 152.039062 41.539062 166.191406 38.222656 179.816406 38.015625 C 238.417969 37.125 297.042969 37.308594 355.652344 37.726562 C 410.382812 38.121094 457.835938 78.6875 466.246094 132.75 C 472.167969 170.835938 462.164062 204.660156 434.804688 232.625 C 433.191406 234.277344 431.203125 235.570312 429.09375 237.265625 C 452.507812 260.035156 466.339844 286.082031 467.582031 318.386719 C 468.671875 346.816406 460.917969 372.078125 443.582031 394.496094 C 415.105469 431.332031 357.566406 454.839844 296.941406 423.808594 C 296.808594 426.523438 296.625 428.914062 296.589844 431.304688 C 296.226562 456.878906 297.214844 482.554688 295.253906 508.007812 C 291.609375 555.304688 254.734375 596.417969 208.722656 606.878906 C 159.828125 617.996094 109.449219 597.140625 84.480469 555.445312 C 56.511719 508.738281 63.382812 452.746094 101.851562 413.8125 C 103.132812 412.515625 104.324219 411.125 105.558594 409.777344 Z M 238.644531 380.945312 L 238.644531 266.605469 C 219.015625 266.605469 199.964844 266.539062 180.914062 266.625 C 151.019531 266.757812 125.84375 291.34375 124.78125 321.328125 C 123.699219 352.011719 146.734375 379.121094 176.675781 380.734375 C 197.066406 381.832031 217.5625 380.945312 238.644531 380.945312 Z M 297.082031 209.089844 C 316.734375 209.089844 335.539062 209.25 354.335938 209.054688 C 385.671875 208.726562 410.421875 183.941406 410.820312 152.746094 C 410.847656 150.886719 410.785156 149.027344 410.632812 147.175781 C 410.476562 145.324219 410.234375 143.480469 409.898438 141.652344 C 409.5625 139.824219 409.140625 138.015625 408.628906 136.226562 C 408.117188 134.4375 407.519531 132.679688 406.835938 130.949219 C 406.148438 129.222656 405.382812 127.53125 404.53125 125.875 C 403.683594 124.222656 402.753906 122.613281 401.746094 121.050781 C 400.738281 119.488281 399.65625 117.976562 398.5 116.519531 C 397.34375 115.066406 396.117188 113.667969 394.824219 112.332031 C 393.53125 110.996094 392.175781 109.722656 390.761719 108.519531 C 389.34375 107.316406 387.871094 106.183594 386.339844 105.125 C 384.8125 104.066406 383.234375 103.085938 381.613281 102.179688 C 379.988281 101.273438 378.320312 100.453125 376.617188 99.710938 C 374.910156 98.96875 373.171875 98.3125 371.402344 97.742188 C 369.632812 97.167969 367.839844 96.6875 366.023438 96.292969 C 364.207031 95.894531 362.375 95.589844 360.527344 95.375 C 358.679688 95.160156 356.824219 95.035156 354.964844 95 C 336.847656 94.65625 318.714844 94.921875 300.585938 94.941406 C 299.492188 94.941406 298.398438 95.234375 297.082031 95.417969 Z M 238.332031 95.195312 C 217.175781 95.195312 196.449219 93.929688 175.941406 95.492188 C 144.910156 97.855469 123.09375 124.75 124.855469 156.003906 C 126.527344 185.691406 151.34375 208.898438 181.664062 209.070312 C 194.449219 209.144531 207.234375 209.085938 220.019531 209.089844 L 238.332031 209.089844 Z M 238.1875 438.539062 C 219.433594 438.539062 200.644531 437.949219 181.917969 438.804688 C 173.335938 439.195312 164.296875 441.109375 156.480469 444.605469 C 132.542969 455.308594 119.746094 483.855469 126.359375 509.34375 C 133.308594 536.121094 157.246094 553.875 184.71875 552.625 C 211.421875 551.410156 235.476562 531.285156 237.796875 505.128906 C 239.714844 483.507812 238.1875 461.585938 238.1875 438.539062 Z M 296.742188 323.839844 C 296.753906 355.773438 321.914062 381.089844 353.65625 381.097656 C 385.089844 381.109375 410.839844 355.289062 410.828125 323.765625 C 410.828125 321.894531 410.734375 320.023438 410.546875 318.160156 C 410.363281 316.296875 410.085938 314.445312 409.71875 312.609375 C 409.351562 310.773438 408.894531 308.957031 408.351562 307.164062 C 407.804688 305.375 407.171875 303.613281 406.453125 301.882812 C 405.734375 300.152344 404.933594 298.460938 404.050781 296.8125 C 403.164062 295.160156 402.203125 293.554688 401.160156 292 C 400.117188 290.441406 399.003906 288.941406 397.8125 287.492188 C 396.625 286.046875 395.367188 284.660156 394.039062 283.335938 C 392.714844 282.015625 391.328125 280.757812 389.878906 279.570312 C 388.429688 278.382812 386.925781 277.269531 385.367188 276.230469 C 383.808594 275.191406 382.203125 274.230469 380.550781 273.347656 C 378.898438 272.46875 377.207031 271.667969 375.476562 270.953125 C 373.746094 270.238281 371.984375 269.609375 370.191406 269.066406 C 368.398438 268.523438 366.582031 268.070312 364.742188 267.703125 C 362.90625 267.339844 361.054688 267.066406 359.191406 266.882812 C 357.328125 266.703125 355.457031 266.609375 353.585938 266.613281 C 321.746094 266.636719 296.734375 291.816406 296.742188 323.839844 Z M 296.742188 323.839844 " fill-opacity="1" fill-rule="nonzero"/></g></svg>