<svg xmlns="http://www.w3.org/2000/svg" xmlns:xlink="http://www.w3.org/1999/xlink" width="700" zoomAndPan="magnify" viewBox="0 0 525 637.499986" height="850" preserveAspectRatio="xMidYMid meet" version="1.0"><defs><clipPath id="93ca900cfd"><path d="M 10.464844 100 L 514.820312 100 L 514.820312 537 L 10.464844 537 Z M 10.464844 100 " clip-rule="nonzero"/></clipPath></defs><path fill="#ffffff" d="M 307.507812 318.089844 C 307.507812 293.992188 287.355469 274.449219 262.496094 274.449219 C 237.640625 274.449219 217.484375 293.992188 217.484375 318.089844 C 217.484375 342.195312 237.640625 361.734375 262.496094 361.734375 C 287.355469 361.734375 307.507812 342.195312 307.507812 318.089844 Z M 307.507812 318.089844 " fill-opacity="1" fill-rule="nonzero"/><g clip-path="url(#93ca900cfd)"><path fill="#ffffff" d="M 408.679688 237.066406 C 418.1875 199.617188 430.132812 130.167969 388.015625 106.625 C 346.089844 83.183594 291.535156 128.101562 262.730469 155.066406 C 234.007812 128.371094 177.917969 83.644531 135.835938 107.261719 C 93.929688 130.785156 106.851562 199.082031 116.570312 236.765625 C 77.476562 247.53125 10.464844 270.71875 10.464844 318.089844 C 10.464844 365.332031 77.40625 390.558594 116.269531 401.3125 C 106.515625 439.207031 94.238281 506.527344 136.199219 529.996094 C 178.441406 553.609375 234.351562 509.945312 263.425781 482.6875 C 292.417969 509.8125 346.449219 553.761719 388.378906 530.226562 C 430.441406 506.617188 419.488281 438.101562 409.773438 400.195312 C 447.441406 389.417969 514.527344 364.742188 514.527344 318.089844 C 514.527344 271.171875 447.15625 247.796875 408.679688 237.066406 Z M 403.90625 380.109375 C 397.527344 360.527344 388.914062 339.707031 378.382812 318.195312 C 388.4375 297.191406 396.714844 276.640625 402.914062 257.183594 C 431.121094 265.113281 492.996094 283.234375 492.996094 318.089844 C 492.996094 353.277344 433.617188 371.570312 403.90625 380.109375 Z M 377.589844 512.15625 C 346.304688 529.714844 299.832031 487.6875 278.421875 467.714844 C 292.625 452.648438 306.820312 435.140625 320.671875 415.695312 C 345.042969 413.597656 368.0625 410.171875 388.941406 405.492188 C 395.78125 432.304688 409.015625 494.519531 377.589844 512.15625 Z M 146.960938 511.90625 C 115.671875 494.414062 129.972656 434.339844 137.144531 406.425781 C 157.792969 410.855469 180.648438 414.039062 205.074219 415.960938 C 219.019531 434.988281 233.625 452.476562 248.34375 467.792969 C 230.15625 484.851562 178.394531 529.480469 146.960938 511.90625 Z M 31.996094 318.089844 C 31.996094 282.773438 93.503906 264.785156 122.351562 256.875 C 128.660156 276.769531 136.933594 297.566406 146.917969 318.601562 C 136.804688 339.945312 128.414062 361.074219 122.046875 381.203125 C 94.539062 373.566406 31.996094 353.429688 31.996094 318.089844 Z M 146.625 125.332031 C 178.039062 107.699219 226.785156 150.640625 247.640625 169.96875 C 233 185.214844 218.527344 202.570312 204.703125 221.488281 C 180.996094 223.621094 158.300781 227.039062 137.441406 231.625 C 129.613281 201.230469 115.242188 142.945312 146.625 125.332031 Z M 336.078125 244.183594 C 352.160156 246.148438 367.570312 248.765625 382.039062 251.96875 C 377.695312 265.46875 372.28125 279.585938 365.90625 294.054688 C 356.660156 277.050781 346.742188 260.386719 336.078125 244.183594 Z M 262.738281 184.886719 C 272.667969 195.320312 282.613281 206.96875 292.402344 219.609375 C 272.550781 218.695312 252.671875 218.695312 232.824219 219.59375 C 242.617188 207.074219 252.652344 195.441406 262.738281 184.886719 Z M 159.273438 294.039062 C 153.003906 279.621094 147.636719 265.441406 143.257812 251.75 C 157.636719 248.628906 172.976562 246.078125 188.953125 244.144531 C 178.261719 260.3125 168.355469 276.96875 159.273438 294.039062 Z M 189.414062 393.527344 C 172.90625 391.742188 157.335938 389.320312 142.960938 386.289062 C 147.410156 372.355469 152.894531 357.871094 159.296875 343.140625 C 168.503906 360.386719 178.5625 377.207031 189.414062 393.527344 Z M 263.332031 452.769531 C 253.128906 442.09375 242.945312 430.28125 233.003906 417.578125 C 252.964844 418.339844 272.964844 418.339844 292.925781 417.476562 C 283.109375 430.410156 273.199219 442.238281 263.332031 452.769531 Z M 366.109375 342.390625 C 372.847656 357.28125 378.527344 371.6875 383.039062 385.382812 C 368.421875 388.617188 352.644531 391.222656 336.015625 393.15625 C 346.757812 376.644531 356.839844 359.722656 366.109375 342.390625 Z M 308.65625 395.6875 C 278.125 397.800781 247.402344 397.777344 216.859375 395.859375 C 199.503906 371.28125 184.054688 345.429688 170.71875 318.59375 C 183.992188 291.8125 199.328125 266.011719 216.601562 241.472656 C 247.164062 239.230469 277.917969 239.226562 308.480469 241.484375 C 325.605469 266.023438 340.921875 291.757812 354.5 318.296875 C 341.082031 345.0625 325.664062 370.914062 308.65625 395.6875 Z M 377.257812 124.710938 C 408.683594 142.285156 394.695312 204.699219 387.832031 231.839844 C 366.917969 227.160156 344.210938 223.679688 320.433594 221.515625 C 306.582031 202.394531 292.234375 185.007812 277.828125 169.957031 C 298.949219 150.214844 346.140625 107.308594 377.257812 124.710938 Z M 377.257812 124.710938 " fill-opacity="1" fill-rule="evenodd"/></g></svg>