<svg xmlns="http://www.w3.org/2000/svg" xmlns:xlink="http://www.w3.org/1999/xlink" width="700" zoomAndPan="magnify" viewBox="0 0 525 637.499986" height="850" preserveAspectRatio="xMidYMid meet" version="1.0"><defs><clipPath id="632a646cee"><path d="M 0.207031 131.964844 L 524.792969 131.964844 L 524.792969 505.171875 L 0.207031 505.171875 Z M 0.207031 131.964844 " clip-rule="nonzero"/></clipPath></defs><g clip-path="url(#632a646cee)"><path fill="#ffffff" d="M 627.324219 569.945312 L -101.449219 569.945312 C -107.058594 569.945312 -111.648438 565.355469 -111.648438 559.746094 L -111.648438 133.394531 C -111.648438 99.226562 -84.109375 71.175781 -49.429688 71.175781 L 575.304688 71.175781 C 609.472656 71.175781 637.523438 99.226562 637.523438 133.394531 L 637.523438 559.746094 C 637.523438 565.355469 632.933594 569.945312 627.324219 569.945312 Z M -91.25 549.542969 L 617.125 549.542969 L 617.125 133.394531 C 617.125 110.445312 598.253906 91.578125 575.304688 91.578125 L -49.429688 91.578125 C -72.890625 91.578125 -91.25 110.445312 -91.25 133.394531 Z M -91.25 549.542969 " fill-opacity="1" fill-rule="evenodd"/></g><path fill="#ffffff" d="M 386.609375 340.960938 C 338.160156 340.960938 290.730469 323.109375 255.542969 292 C 243.8125 281.292969 234.632812 272.113281 226.984375 263.953125 C 210.152344 246.613281 201.992188 238.960938 190.265625 238.960938 C 175.472656 238.960938 152.015625 250.183594 107.644531 280.269531 C 104.078125 282.820312 98.976562 282.3125 95.40625 279.761719 C 92.347656 277.210938 90.816406 272.621094 92.347656 268.542969 C 93.875 263.953125 131.105469 154.816406 229.53125 154.816406 C 239.222656 154.816406 248.914062 155.835938 258.601562 157.875 C 296.851562 165.523438 343.261719 194.082031 367.230469 216.523438 C 394.257812 242.53125 412.109375 257.832031 434.039062 257.832031 C 449.847656 257.832031 468.71875 249.671875 493.195312 231.3125 C 496.257812 229.273438 500.335938 228.761719 503.90625 230.292969 C 507.476562 232.332031 509.515625 235.902344 509.515625 239.472656 C 509.515625 300.160156 460.046875 340.960938 386.609375 340.960938 Z M 311.132812 486.304688 C 262.683594 486.304688 215.253906 468.457031 180.0625 437.347656 C 168.335938 427.148438 159.15625 417.457031 151.503906 409.296875 C 134.675781 391.957031 126.515625 384.308594 114.785156 384.308594 C 99.996094 384.308594 76.535156 396.039062 32.167969 425.617188 C 28.597656 428.167969 23.5 428.167969 20.4375 425.617188 C 16.867188 422.558594 15.339844 417.96875 16.867188 413.886719 C 18.398438 409.296875 55.628906 300.160156 154.566406 300.160156 C 163.746094 300.160156 173.433594 301.179688 183.125 303.222656 C 221.375 311.378906 267.78125 339.429688 291.75 362.378906 C 318.78125 387.878906 336.628906 403.179688 358.558594 403.179688 C 374.371094 403.179688 393.238281 395.019531 417.71875 377.167969 C 420.777344 374.617188 424.859375 374.109375 428.429688 376.148438 C 431.996094 377.679688 434.039062 381.25 434.039062 385.328125 C 434.039062 445.507812 384.570312 486.304688 311.132812 486.304688 Z M 311.132812 486.304688 " fill-opacity="1" fill-rule="evenodd"/></svg>